<?xml version="1.0" encoding="UTF-8"?>
<svg xmlns="http://www.w3.org/2000/svg" viewBox="0 0 64 64" width="64" height="64" role="img" aria-label="TalentFlow icon">
  <!-- Rounded rect background in primary blue -->
  <rect width="64" height="64" rx="12" fill="#0ea5e9" />

  <!-- Outer gear (subtle, darker blue) -->
  <g transform="translate(6,6) scale(0.85)">
    <circle cx="32" cy="32" r="22" fill="#0369a1" opacity="0.95" />
    <!-- simple gear teeth using rotated rectangles -->
    <g fill="#075985">
      <rect x="30" y="2" width="4" height="8" rx="1" />
      <rect x="30" y="54" width="4" height="8" rx="1" transform="rotate(180 32 58)" />
      <rect x="2" y="30" width="8" height="4" rx="1" transform="rotate(-90 6 32)" />
      <rect x="54" y="30" width="8" height="4" rx="1" transform="rotate(90 58 32)" />
      <rect x="9" y="9" width="6" height="4" rx="1" transform="rotate(-45 12 11)" />
      <rect x="49" y="49" width="6" height="4" rx="1" transform="rotate(135 52 51)" />
      <rect x="9" y="49" width="6" height="4" rx="1" transform="rotate(45 12 51)" />
      <rect x="49" y="9" width="6" height="4" rx="1" transform="rotate(-135 52 11)" />
    </g>
  </g>

  <!-- Person silhouette in white -->
  <g transform="translate(16,12)">
    <circle cx="16" cy="14" r="6" fill="#ffffff" />
    <path d="M10 28c0-4 6-6 12-6s12 2 12 6v4H10v-4z" fill="#ffffff" />
  </g>

  <!-- subtle drop shadow / outline -->
  <rect x="0" y="0" width="64" height="64" rx="12" fill="none" stroke="#000000" stroke-opacity="0.06" />
</svg>
